<svg xmlns="http://www.w3.org/2000/svg" viewBox="0 0 96 96" width="96" height="96" role="img" aria-label="Wisp"><defs><radialGradient id="gl-heart" gradientUnits="userSpaceOnUse" cx="47.10" cy="77.74" r="54.76"><stop offset="0" stop-color="#F4ECFF"/><stop offset="0.3" stop-color="#D4BBFA"/><stop offset="1" stop-color="#9b71e2"/></radialGradient><radialGradient id="gl-halo" gradientUnits="userSpaceOnUse" cx="48" cy="48" r="47.50"><stop offset="0" stop-color="#AF87F1" stop-opacity="0.300"/><stop offset="1" stop-color="#AF87F1" stop-opacity="0"/></radialGradient></defs><circle cx="48" cy="48" r="47.50" fill="url(#gl-halo)"/><path d="M47.1 92.16C30.88 92.16 18.26 80.44 18.26 63.32C18.26 46.2 29.07 37.19 31.78 24.57C33.58 16.46 30.88 10.15 24.57 3.84C43.49 7.44 52.51 20.06 52.51 35.38C57.01 32.68 62.42 29.98 67.83 25.47C74.14 37.19 77.74 48.9 77.74 63.32C77.74 79.54 64.22 92.16 47.1 92.16Z" fill="url(#gl-heart)"/><path d="M36.28 57.91C36.28 55.92 37.9 54.31 39.89 54.31C41.88 54.31 43.49 55.92 43.49 57.91L43.49 63.32C43.49 65.31 41.88 66.93 39.89 66.93C37.9 66.93 36.28 65.31 36.28 63.32ZM53.41 57.91C53.41 55.92 55.02 54.31 57.01 54.31C59 54.31 60.62 55.92 60.62 57.91L60.62 63.32C60.62 65.31 59 66.93 57.01 66.93C55.02 66.93 53.41 65.31 53.41 63.32Z" fill="#120d1c"/></svg>
